# xmcd CD database file
#
# Track frame offsets:
#	150
#	26239
#	41188
#	65998
#	86128
#	102840
#	120418
#	142230
#	162387
#	182099
#	206572
#
# Disc length: 3096 seconds
#
# Revision: 8
# Processed by: cddbd v1.5.2PL0 Copyright (c) Steve Scherf et al.
# Submitted via: CDex 1.51
#
DISCID=a90c160b
DTITLE=Jacques Loussier - Beethoven ~ Allegretto from Symphony N°7  { Theme and Variations }
DYEAR=2003
DGENRE=Jazz
TTITLE0=Beethoven ~ Allegretto from Symphony N°7 - theme
TTITLE1=Beethoven ~ Allegretto from Symphony N°7 - variation one
TTITLE2=Beethoven ~ Allegretto from Symphony N°7 - variation two
TTITLE3=Beethoven ~ Allegretto from Symphony N°7 - variation three
TTITLE4=Beethoven ~ Allegretto from Symphony N°7 - variation four
TTITLE5=Beethoven ~ Allegretto from Symphony N°7 - variation five
TTITLE6=Beethoven ~ Allegretto from Symphony N°7 - variation six
TTITLE7=Beethoven ~ Allegretto from Symphony N°7 - variation seven
TTITLE8=Beethoven ~ Allegretto from Symphony N°7 - variation eight
TTITLE9=Beethoven ~ Allegretto from Symphony N°7 - variation nine
TTITLE10=Beethoven ~ Allegretto from Symphony N°7 - variation ten
EXTD=YEAR: 2003
EXTT0=
EXTT1=
EXTT2=
EXTT3=
EXTT4=
EXTT5=
EXTT6=
EXTT7=
EXTT8=
EXTT9=
EXTT10=
PLAYORDER=
